<svg width="16" height="16" viewBox="0 0 16 16" fill="none" xmlns="http://www.w3.org/2000/svg">
<g clip-path="url(#clip0_1_3812)">
<path d="M8 0.800049C6.09044 0.800049 4.2591 1.55862 2.90883 2.90888C1.55857 4.25914 0.800003 6.09049 0.800003 8.00005C0.800003 9.90961 1.55857 11.741 2.90883 13.0912C4.2591 14.4415 6.09044 15.2 8 15.2C9.90956 15.2 11.7409 14.4415 13.0912 13.0912C14.4414 11.741 15.2 9.90961 15.2 8.00005C15.2 6.09049 14.4414 4.25914 13.0912 2.90888C11.7409 1.55862 9.90956 0.800049 8 0.800049ZM11.2 5.60005L10.4 10.4L9.6 11.2H8.8L7.2 9.60005V8.80005L9.6 7.20005H8.8C7.7135 7.69275 6.64607 8.22647 5.6 8.80005H4V8.00005C6.38255 7.14862 8.78311 6.34844 11.2 5.60005Z" fill="#F7931E"/>
</g>
<defs>
<clipPath id="clip0_1_3812">
<rect width="16" height="16" fill="white"/>
</clipPath>
</defs>
</svg>
