<svg width="32" height="32" viewBox="0 0 32 32" fill="none" xmlns="http://www.w3.org/2000/svg">
<circle cx="16" cy="16" r="16" fill="#132957"/>
<path d="M17.8473 15.6332C17.8473 16.0805 17.5173 16.4472 17.0993 16.4472C16.6886 16.4472 16.3513 16.0805 16.3513 15.6332C16.3513 15.1858 16.6813 14.8192 17.0993 14.8192C17.5173 14.8192 17.8473 15.1858 17.8473 15.6332ZM14.4226 14.8192C14.0046 14.8192 13.6746 15.1858 13.6746 15.6332C13.6746 16.0805 14.0119 16.4472 14.4226 16.4472C14.8406 16.4472 15.1706 16.0805 15.1706 15.6332C15.1779 15.1858 14.8406 14.8192 14.4226 14.8192ZM22.1666 10.1772V23.3332C20.3191 21.7005 20.9099 22.241 18.7639 20.2458L19.1526 21.6025H10.8366C10.0079 21.6025 9.33325 20.9278 9.33325 20.0918V10.1772C9.33325 9.34117 10.0079 8.6665 10.8366 8.6665H20.6633C21.4919 8.6665 22.1666 9.34117 22.1666 10.1772ZM20.0766 17.1292C20.0766 14.7678 19.0206 12.8538 19.0206 12.8538C17.9646 12.0618 16.9599 12.0838 16.9599 12.0838L16.8573 12.2012C18.1039 12.5825 18.6833 13.1325 18.6833 13.1325C16.9413 12.1778 14.895 12.1776 13.2053 12.9198C12.9339 13.0445 12.7726 13.1325 12.7726 13.1325C12.7726 13.1325 13.3813 12.5532 14.7013 12.1718L14.6279 12.0838C14.6279 12.0838 13.6233 12.0618 12.5673 12.8538C12.5673 12.8538 11.5113 14.7678 11.5113 17.1292C11.5113 17.1292 12.1273 18.1925 13.7479 18.2438C13.7479 18.2438 14.0193 17.9138 14.2393 17.6352C13.3079 17.3565 12.9559 16.7698 12.9559 16.7698C13.0638 16.8453 13.2417 16.9432 13.2566 16.9532C14.4944 17.6463 16.2526 17.8734 17.8326 17.2098C18.0893 17.1145 18.3753 16.9752 18.6759 16.7772C18.6759 16.7772 18.3093 17.3785 17.3486 17.6498C17.5686 17.9285 17.8326 18.2438 17.8326 18.2438C19.4533 18.1925 20.0766 17.1292 20.0766 17.1292Z" fill="white"/>
</svg>
