<svg width="32" height="32" viewBox="0 0 32 32" fill="none" xmlns="http://www.w3.org/2000/svg">
<circle cx="16" cy="16" r="16" fill="#132957"/>
<path d="M23.3334 16.0445C23.3334 11.9687 20.0512 8.6665 16.0001 8.6665C11.949 8.6665 8.66675 11.9687 8.66675 16.0445C8.66675 19.7334 11.328 22.7977 14.8469 23.3332V18.1865H12.984V16.0445H14.8469V14.438C14.8469 12.5935 15.9409 11.5522 17.5969 11.5522C18.4248 11.5522 19.2528 11.701 19.2528 11.701V13.5157H18.3361C17.4194 13.5157 17.1237 14.081 17.1237 14.676V16.0445H19.1641L18.8388 18.1865H17.1237V23.3332C20.6426 22.7977 23.3334 19.7334 23.3334 16.0445Z" fill="#F5F4FA"/>
</svg>
