<svg width="32" height="32" viewBox="0 0 32 32" fill="none" xmlns="http://www.w3.org/2000/svg">
<circle cx="16" cy="16" r="16" fill="#132957"/>
<path d="M13.1008 20.477C13.1008 20.4165 13.039 20.3559 12.9462 20.3559C12.8535 20.3559 12.7917 20.4165 12.7917 20.477C12.7917 20.5376 12.8535 20.5982 12.9462 20.5679C13.039 20.5679 13.1008 20.5376 13.1008 20.477ZM12.1425 20.3256C12.1425 20.3862 12.2043 20.477 12.297 20.477C12.3589 20.5073 12.4516 20.477 12.4825 20.4165C12.4825 20.3559 12.4516 20.2953 12.3589 20.2651C12.2661 20.2348 12.1734 20.2651 12.1425 20.3256ZM13.5336 20.2953C13.4409 20.2953 13.379 20.3559 13.379 20.4468C13.379 20.5073 13.4718 20.5376 13.5645 20.5073C13.6573 20.477 13.7191 20.4468 13.6882 20.3862C13.6882 20.3256 13.5954 20.2651 13.5336 20.2953ZM15.543 8.6665C11.2769 8.6665 8 11.8765 8 16.0557C8 19.4171 10.1331 22.294 13.2245 23.3237C13.6263 23.3843 13.75 23.142 13.75 22.9603C13.75 22.7483 13.75 21.7187 13.75 21.0827C13.75 21.0827 11.586 21.537 11.1223 20.1742C11.1223 20.1742 10.7823 19.296 10.2876 19.084C10.2876 19.084 9.57661 18.5995 10.3185 18.5995C10.3185 18.5995 11.0914 18.66 11.5242 19.3868C12.2043 20.5679 13.3172 20.2348 13.7809 20.0228C13.8427 19.5383 14.0282 19.2051 14.2755 18.9932C12.5444 18.8115 10.7823 18.5692 10.7823 15.662C10.7823 14.814 11.0296 14.4204 11.5242 13.8753C11.4315 13.6633 11.1841 12.8759 11.6169 11.816C12.2352 11.6343 13.75 12.6336 13.75 12.6336C14.3683 12.4519 15.0175 12.3914 15.6667 12.3914C16.3468 12.3914 16.996 12.4519 17.6142 12.6336C17.6142 12.6336 19.0981 11.604 19.7473 11.816C20.1801 12.8759 19.9019 13.6633 19.8401 13.8753C20.3347 14.4204 20.6438 14.814 20.6438 15.662C20.6438 18.5692 18.8199 18.8115 17.0887 18.9932C17.3669 19.2354 17.6142 19.6897 17.6142 20.4165C17.6142 21.4158 17.5833 22.6877 17.5833 22.93C17.5833 23.142 17.7379 23.3843 18.1398 23.2934C21.2312 22.294 23.3333 19.4171 23.3333 16.0557C23.3333 11.8765 19.8401 8.6665 15.543 8.6665ZM10.9987 19.1143C10.9368 19.1446 10.9677 19.2354 10.9987 19.296C11.0605 19.3263 11.1223 19.3566 11.1841 19.3263C11.2151 19.296 11.2151 19.2051 11.1532 19.1446C11.0914 19.1143 11.0296 19.084 10.9987 19.1143ZM10.6586 18.872C10.6277 18.9326 10.6586 18.9629 10.7204 18.9932C10.7823 19.0234 10.8441 19.0234 10.875 18.9629C10.875 18.9326 10.8441 18.9023 10.7823 18.872C10.7204 18.8417 10.6895 18.8417 10.6586 18.872ZM11.6478 19.9622C11.6169 19.9925 11.6169 20.0834 11.7097 20.1439C11.7715 20.2045 11.8642 20.2348 11.8952 20.1742C11.9261 20.1439 11.9261 20.0531 11.8642 19.9925C11.8024 19.9319 11.7097 19.9017 11.6478 19.9622ZM11.3078 19.508C11.246 19.5383 11.246 19.6291 11.3078 19.6897C11.3696 19.7502 11.4315 19.7805 11.4933 19.7502C11.5242 19.72 11.5242 19.6291 11.4933 19.5685C11.4315 19.508 11.3696 19.4777 11.3078 19.508Z" fill="#F5F4FA"/>
</svg>
