<svg width="32" height="32" viewBox="0 0 32 32" fill="none" xmlns="http://www.w3.org/2000/svg">
<circle cx="16" cy="16" r="16" fill="#132957"/>
<path d="M15.7501 12.5392C13.9167 12.5392 12.4558 14.0288 12.4558 15.8335C12.4558 17.6668 13.9167 19.1278 15.7501 19.1278C17.5548 19.1278 19.0444 17.6668 19.0444 15.8335C19.0444 14.0288 17.5548 12.5392 15.7501 12.5392ZM15.7501 17.9819C14.5756 17.9819 13.6016 17.0366 13.6016 15.8335C13.6016 14.659 14.547 13.7137 15.7501 13.7137C16.9246 13.7137 17.8699 14.659 17.8699 15.8335C17.8699 17.0366 16.9246 17.9819 15.7501 17.9819ZM19.9324 12.4246C19.9324 11.995 19.5886 11.6512 19.1589 11.6512C18.7292 11.6512 18.3855 11.995 18.3855 12.4246C18.3855 12.8543 18.7292 13.1981 19.1589 13.1981C19.5886 13.1981 19.9324 12.8543 19.9324 12.4246ZM22.1095 13.1981C22.0522 12.1668 21.823 11.2502 21.0782 10.5054C20.3334 9.76058 19.4167 9.53141 18.3855 9.47412C17.3256 9.41683 14.1459 9.41683 13.086 9.47412C12.0548 9.53141 11.1667 9.76058 10.3933 10.5054C9.64852 11.2502 9.41935 12.1668 9.36206 13.1981C9.30477 14.258 9.30477 17.4377 9.36206 18.4976C9.41935 19.5288 9.64852 20.4168 10.3933 21.1903C11.1667 21.9351 12.0548 22.1642 13.086 22.2215C14.1459 22.2788 17.3256 22.2788 18.3855 22.2215C19.4167 22.1642 20.3334 21.9351 21.0782 21.1903C21.823 20.4168 22.0522 19.5288 22.1095 18.4976C22.1667 17.4377 22.1667 14.258 22.1095 13.1981ZM20.7345 19.6147C20.5339 20.1877 20.0756 20.6173 19.5313 20.8465C18.672 21.1903 16.6667 21.1043 15.7501 21.1043C14.8048 21.1043 12.7996 21.1903 11.9688 20.8465C11.3959 20.6173 10.9662 20.1877 10.7371 19.6147C10.3933 18.784 10.4792 16.7788 10.4792 15.8335C10.4792 14.9168 10.3933 12.9116 10.7371 12.0522C10.9662 11.508 11.3959 11.0783 11.9688 10.8491C12.7996 10.5054 14.8048 10.5913 15.7501 10.5913C16.6667 10.5913 18.672 10.5054 19.5313 10.8491C20.0756 11.0496 20.5053 11.508 20.7345 12.0522C21.0782 12.9116 20.9923 14.9168 20.9923 15.8335C20.9923 16.7788 21.0782 18.784 20.7345 19.6147Z" fill="white"/>
</svg>
