<svg width="76" height="32" viewBox="0 0 76 32" fill="none" xmlns="http://www.w3.org/2000/svg">
<path d="M21.6636 17.28C21.8757 21.4416 18.4598 24.8616 14.2982 24.6537C10.734 24.4762 7.83668 21.5817 7.6523 18.0175C7.43743 13.8517 10.8574 10.4289 15.0218 10.641C18.5846 10.8213 21.4806 13.7158 21.6622 17.28H21.6636Z" fill="#F2994A"/>
<path d="M29.2814 14.3412C29.2176 13.6605 29.0623 13.0034 28.7962 12.3727C28.4551 11.5672 27.9644 10.8547 27.3932 10.199C26.7639 9.47531 26.0444 8.84593 25.3166 8.22626C24.5805 7.60104 23.8388 6.98137 23.1193 6.33813C22.5398 5.81965 21.9922 5.26514 21.4266 4.73142C20.7141 4.06184 19.9696 3.43246 19.1337 2.91815C17.99 2.21252 16.7521 1.84099 15.4046 1.85763C14.5964 1.86733 13.8034 1.99348 13.0271 2.21391C12.047 2.49116 11.1209 2.89596 10.2282 3.37839C8.44262 4.34187 6.74302 5.4412 5.09749 6.62648C4.27403 7.21843 3.47275 7.83671 2.73802 8.53818C1.99635 9.24519 1.34618 10.0229 0.849888 10.9226C0.245464 12.0178 -0.0553631 13.1823 0.00840643 14.4382C0.0472226 15.2146 0.196941 15.9701 0.410431 16.7145C0.650259 17.5477 0.964951 18.3559 1.2838 19.1613C1.74127 20.3106 2.16132 21.4737 2.4469 22.6811C2.63959 23.4977 2.83783 24.3142 3.05964 25.1252C3.30085 26.0096 3.64743 26.8525 4.14649 27.6274C4.67606 28.4467 5.34703 29.1094 6.23703 29.5336C6.88165 29.8386 7.56371 29.9994 8.26795 30.0812C9.0914 30.1754 9.91625 30.1463 10.7411 30.0992C11.638 30.0465 12.5336 29.9814 13.8783 29.9994C14.4286 30.0119 15.4254 30.0382 16.4235 30.0548C17.6573 30.0742 18.887 30.0243 20.1013 29.772C21.001 29.5835 21.8633 29.2924 22.6618 28.8321C23.5657 28.3095 24.3074 27.6053 24.9464 26.786C25.5661 25.9916 26.0582 25.1196 26.4866 24.2116C26.9871 23.1539 27.4057 22.0615 27.8438 20.9774C28.2209 20.043 28.5827 19.1045 28.8586 18.1327C29.2107 16.8934 29.4034 15.636 29.2828 14.3426L29.2814 14.3412ZM26.5227 17.0278C26.4367 18.532 26.0652 19.9654 25.4164 21.3226C24.0911 24.0924 22.0671 26.1899 19.3236 27.5775C18.155 28.1681 16.917 28.5368 15.6111 28.6685C13.9365 28.8349 12.3298 28.5618 10.7868 27.9019C9.54195 27.3682 8.42044 26.6376 7.40567 25.7476C5.99165 24.5069 4.78973 23.0859 3.86369 21.4446C3.25788 20.3702 2.84338 19.2251 2.65346 18.0024C2.5079 17.0639 2.5079 16.1267 2.65346 15.1896C2.95983 13.2502 3.77358 11.534 4.96856 9.99378C6.60994 7.88246 8.68244 6.34506 11.1902 5.40654C12.4532 4.9352 13.7604 4.68705 15.3505 4.67735C17.5714 4.71755 19.8102 5.43704 21.7774 6.91899C24.141 8.70037 25.6049 11.0737 26.2676 13.9516C26.5005 14.9636 26.5837 15.9909 26.5227 17.0264V17.0278Z" fill="#F2994A"/>
<path d="M21.6636 17.28C21.8757 21.4416 18.4598 24.8616 14.2982 24.6537C10.734 24.4762 7.83668 21.5817 7.6523 18.0175C7.43743 13.8517 10.8574 10.4289 15.0218 10.641C18.5846 10.8213 21.4806 13.7158 21.6622 17.28H21.6636Z" fill="#F2994A"/>
<path d="M21.6636 17.28C21.8757 21.4416 18.4598 24.8616 14.2982 24.6537C10.734 24.4762 7.83668 21.5817 7.6523 18.0175C7.43743 13.8517 10.8574 10.4289 15.0218 10.641C18.5846 10.8213 21.4806 13.7158 21.6622 17.28H21.6636Z" fill="#F2994A"/>
<path d="M38.7683 7.08645V25.5H34.8752V7.08645H38.7683ZM48.4988 25.5H41.9713V7.08645H48.5528C50.4049 7.08645 51.9993 7.45508 53.336 8.19234C54.6726 8.92361 55.7006 9.97556 56.4199 11.3482C57.1451 12.7208 57.5078 14.3632 57.5078 16.2752C57.5078 18.1933 57.1451 19.8417 56.4199 21.2203C55.7006 22.5989 54.6666 23.6568 53.318 24.3941C51.9753 25.1314 50.3689 25.5 48.4988 25.5ZM45.8644 22.1643H48.337C49.4878 22.1643 50.4558 21.9605 51.2411 21.553C52.0323 21.1394 52.6257 20.501 53.0213 19.6379C53.4229 18.7687 53.6237 17.6479 53.6237 16.2752C53.6237 14.9146 53.4229 13.8027 53.0213 12.9396C52.6257 12.0765 52.0353 11.4411 51.25 11.0335C50.4648 10.6259 49.4968 10.4221 48.346 10.4221H45.8644V22.1643ZM60.3916 25.5V7.08645H67.7642C69.1189 7.08645 70.2488 7.28725 71.1539 7.68885C72.0589 8.09045 72.7393 8.64789 73.1948 9.36117C73.6504 10.0685 73.8781 10.8836 73.8781 11.8067C73.8781 12.526 73.7343 13.1584 73.4466 13.7038C73.1588 14.2433 72.7632 14.6868 72.2597 15.0345C71.7622 15.3761 71.1928 15.6189 70.5515 15.7628V15.9426C71.2528 15.9725 71.9091 16.1703 72.5205 16.536C73.1379 16.9016 73.6384 17.4141 74.022 18.0734C74.4056 18.7268 74.5974 19.506 74.5974 20.4111C74.5974 21.3881 74.3546 22.2602 73.8691 23.0275C73.3896 23.7887 72.6793 24.3911 71.7383 24.8347C70.7972 25.2782 69.6374 25.5 68.2588 25.5H60.3916ZM64.2847 22.3172H67.4586C68.5435 22.3172 69.3347 22.1104 69.8322 21.6968C70.3297 21.2772 70.5784 20.7198 70.5784 20.0245C70.5784 19.515 70.4556 19.0654 70.2098 18.6758C69.964 18.2862 69.6134 17.9805 69.1579 17.7588C68.7083 17.537 68.1718 17.4261 67.5485 17.4261H64.2847V22.3172ZM64.2847 14.7917H67.1708C67.7043 14.7917 68.1778 14.6988 68.5914 14.513C69.011 14.3212 69.3407 14.0515 69.5804 13.7038C69.8262 13.3562 69.9491 12.9396 69.9491 12.4541C69.9491 11.7887 69.7123 11.2523 69.2388 10.8447C68.7712 10.4371 68.1059 10.2333 67.2428 10.2333H64.2847V14.7917Z" fill="#F2994A"/>
</svg>
