<svg width="16" height="16" viewBox="0 0 16 16" fill="none" xmlns="http://www.w3.org/2000/svg">
<g clip-path="url(#clip0_1_3836)">
<path fill-rule="evenodd" clip-rule="evenodd" d="M7.99999 0.799805C6.09043 0.799805 4.25908 1.55837 2.90882 2.90864C1.55856 4.2589 0.799988 6.09025 0.799988 7.9998C0.799988 9.90936 1.55856 11.7407 2.90882 13.091C4.25908 14.4412 6.09043 15.1998 7.99999 15.1998C9.90955 15.1998 11.7409 14.4412 13.0912 13.091C14.4414 11.7407 15.2 9.90936 15.2 7.9998C15.2 6.09025 14.4414 4.2589 13.0912 2.90864C11.7409 1.55837 9.90955 0.799805 7.99999 0.799805ZM7.19999 9.5998V7.5V6.5L7.99999 8.5L7.19999 8.5499L7.99999 9.5998H7.19999Z" fill="#F7931E"/>
<path d="M5.25 7L7.1602 8.06125C7.38305 8.18505 7.63375 8.25 7.8887 8.25H8.1113C8.36625 8.25 8.61695 8.18505 8.8398 8.06125L10.75 7M6.6 10.5H9.4C9.96005 10.5 10.2401 10.5 10.454 10.391C10.6422 10.2952 10.7952 10.1421 10.891 9.954C11 9.7401 11 9.46005 11 8.9V7.6C11 7.03995 11 6.75992 10.891 6.54601C10.7952 6.35785 10.6422 6.20486 10.454 6.10899C10.2401 6 9.96005 6 9.4 6H6.6C6.03995 6 5.75992 6 5.54601 6.10899C5.35785 6.20486 5.20486 6.35785 5.10899 6.54601C5 6.75992 5 7.03994 5 7.6V8.9C5 9.46005 5 9.7401 5.10899 9.954C5.20486 10.1421 5.35785 10.2952 5.54601 10.391C5.75992 10.5 6.03994 10.5 6.6 10.5Z" fill="#14171D"/>
<path d="M5.25 7L7.1602 8.06125C7.38305 8.18505 7.63375 8.25 7.8887 8.25H8.1113C8.36625 8.25 8.61695 8.18505 8.8398 8.06125L10.75 7M6.6 10.5H9.4C9.96005 10.5 10.2401 10.5 10.454 10.391C10.6422 10.2952 10.7952 10.1421 10.891 9.954C11 9.7401 11 9.46005 11 8.9V7.6C11 7.03995 11 6.75992 10.891 6.54601C10.7952 6.35785 10.6422 6.20486 10.454 6.10899C10.2401 6 9.96005 6 9.4 6H6.6C6.03995 6 5.75992 6 5.54601 6.10899C5.35785 6.20486 5.20486 6.35785 5.10899 6.54601C5 6.75992 5 7.03994 5 7.6V8.9C5 9.46005 5 9.7401 5.10899 9.954C5.20486 10.1421 5.35785 10.2952 5.54601 10.391C5.75992 10.5 6.03994 10.5 6.6 10.5Z" stroke="#F7931E" stroke-width="0.5"/>
</g>
<defs>
<clipPath id="clip0_1_3836">
<rect width="16" height="16" fill="white"/>
</clipPath>
</defs>
</svg>
