<svg width="16" height="16" viewBox="0 0 16 16" fill="none" xmlns="http://www.w3.org/2000/svg">
<path fill-rule="evenodd" clip-rule="evenodd" d="M3 1C2.44772 1 2 1.44772 2 2V14C2 14.5523 2.44772 15 3 15H13C13.5523 15 14 14.5523 14 14V6L9 1H3ZM6 10C6.82843 10 7.5 10.6716 7.5 11.5C8.05228 11.5 8.5 11.9477 8.5 12.5C8.5 13.0523 8.05228 13.5 7.5 13.5H4.5C3.94772 13.5 3.5 13.0523 3.5 12.5C3.5 11.9477 3.94772 11.5 4.5 11.5C4.5 10.6716 5.17157 10 6 10Z" fill="#F7931E"/>
<path d="M9 5V1L14 6H10C9.44772 6 9 5.55228 9 5Z" fill="#0A2237"/>
</svg>
