<svg width="32" height="32" viewBox="0 0 32 32" fill="none" xmlns="http://www.w3.org/2000/svg">
<circle cx="16" cy="16" r="16" fill="#132957"/>
<path d="M22.0099 13.1548C22.602 12.7107 23.1349 12.1778 23.5494 11.5561C23.0165 11.793 22.3948 11.9706 21.7731 12.0298C22.4244 11.6449 22.8981 11.0528 23.1349 10.3127C22.5428 10.668 21.8619 10.9344 21.181 11.0824C20.5889 10.4607 19.7895 10.1055 18.9014 10.1055C17.1843 10.1055 15.7928 11.4969 15.7928 13.214C15.7928 13.4509 15.8224 13.6877 15.8816 13.9245C13.306 13.7765 10.9968 12.5331 9.45728 10.668C9.19083 11.112 9.04281 11.6449 9.04281 12.237C9.04281 13.3028 9.5757 14.2502 10.4343 14.8127C9.93097 14.7831 9.42768 14.6647 9.0132 14.4278V14.4574C9.0132 15.9673 10.079 17.2107 11.5 17.5068C11.2632 17.566 10.9671 17.6252 10.7007 17.6252C10.4935 17.6252 10.3158 17.5956 10.1086 17.566C10.4935 18.8094 11.6481 19.6976 13.0099 19.7272C11.9441 20.5561 10.6119 21.0594 9.16123 21.0594C8.89478 21.0594 8.65794 21.0298 8.4211 21.0002C9.78294 21.8884 11.4112 22.3917 13.1875 22.3917C18.9014 22.3917 22.0099 17.6844 22.0099 13.5693C22.0099 13.4213 22.0099 13.3028 22.0099 13.1548Z" fill="#F5F4FA"/>
</svg>
