<svg width="32" height="32" viewBox="0 0 32 32" fill="none" xmlns="http://www.w3.org/2000/svg">
<circle cx="16" cy="16" r="16" fill="#132957"/>
<path d="M23.649 12.4055C23.4735 11.7213 22.9177 11.1797 22.245 11.0086C20.9872 10.6665 16.0146 10.6665 16.0146 10.6665C16.0146 10.6665 11.0128 10.6665 9.75503 11.0086C9.08227 11.1797 8.52651 11.7213 8.35101 12.4055C8 13.6029 8 16.1687 8 16.1687C8 16.1687 8 18.706 8.35101 19.9319C8.52651 20.6161 9.08227 21.1292 9.75503 21.3003C11.0128 21.6139 16.0146 21.6139 16.0146 21.6139C16.0146 21.6139 20.9872 21.6139 22.245 21.3003C22.9177 21.1292 23.4735 20.6161 23.649 19.9319C24 18.706 24 16.1687 24 16.1687C24 16.1687 24 13.6029 23.649 12.4055ZM14.3766 18.4779V13.8595L18.5302 16.1687L14.3766 18.4779Z" fill="white"/>
</svg>
